<mxfile host="app.diagrams.net" modified="2022-11-05T14:15:09.781Z" agent="5.0 (Windows NT 10.0; Win64; x64) AppleWebKit/537.36 (KHTML, like Gecko) Chrome/107.0.0.0 Safari/537.36 Edg/107.0.1418.26" etag="Z8M3-VSXayvQZGDyjpiZ" version="20.5.1" type="github">
  <diagram id="LxKFEtir3kCeHYvWBD5M" name="第 1 页">
    <mxGraphModel dx="734" dy="475" grid="1" gridSize="10" guides="1" tooltips="1" connect="1" arrows="1" fold="1" page="1" pageScale="1" pageWidth="827" pageHeight="1169" math="0" shadow="0">
      <root>
        <mxCell id="0" />
        <mxCell id="1" parent="0" />
        <mxCell id="-OyFsQ3j8IVkyFUIj5fn-1" value="&lt;font style=&quot;font-size: 16px;&quot;&gt;a&lt;/font&gt;" style="rounded=0;whiteSpace=wrap;html=1;fillColor=#d5e8d4;strokeColor=#82b366;" vertex="1" parent="1">
          <mxGeometry x="160" y="160" width="80" height="70" as="geometry" />
        </mxCell>
        <mxCell id="-OyFsQ3j8IVkyFUIj5fn-2" value="&lt;font style=&quot;font-size: 16px;&quot;&gt;b&lt;/font&gt;" style="rounded=0;whiteSpace=wrap;html=1;fillColor=#d5e8d4;strokeColor=#82b366;" vertex="1" parent="1">
          <mxGeometry x="240" y="160" width="80" height="70" as="geometry" />
        </mxCell>
        <mxCell id="-OyFsQ3j8IVkyFUIj5fn-3" value="&lt;font style=&quot;font-size: 16px;&quot;&gt;c&lt;/font&gt;" style="rounded=0;whiteSpace=wrap;html=1;fillColor=#d5e8d4;strokeColor=#82b366;" vertex="1" parent="1">
          <mxGeometry x="320" y="160" width="80" height="70" as="geometry" />
        </mxCell>
        <mxCell id="-OyFsQ3j8IVkyFUIj5fn-4" value="&lt;font style=&quot;font-size: 16px;&quot;&gt;a&lt;/font&gt;" style="rounded=0;whiteSpace=wrap;html=1;fillColor=#d5e8d4;strokeColor=#82b366;" vertex="1" parent="1">
          <mxGeometry x="400" y="160" width="80" height="70" as="geometry" />
        </mxCell>
        <mxCell id="-OyFsQ3j8IVkyFUIj5fn-5" value="&lt;font style=&quot;font-size: 16px;&quot;&gt;b&lt;/font&gt;" style="rounded=0;whiteSpace=wrap;html=1;fillColor=#d5e8d4;strokeColor=#82b366;" vertex="1" parent="1">
          <mxGeometry x="480" y="160" width="80" height="70" as="geometry" />
        </mxCell>
        <mxCell id="-OyFsQ3j8IVkyFUIj5fn-6" value="&lt;font style=&quot;font-size: 16px;&quot;&gt;c&lt;/font&gt;" style="rounded=0;whiteSpace=wrap;html=1;fillColor=#d5e8d4;strokeColor=#82b366;" vertex="1" parent="1">
          <mxGeometry x="560" y="160" width="80" height="70" as="geometry" />
        </mxCell>
        <mxCell id="-OyFsQ3j8IVkyFUIj5fn-7" value="&lt;font style=&quot;font-size: 16px;&quot;&gt;b&lt;/font&gt;" style="rounded=0;whiteSpace=wrap;html=1;fillColor=#d5e8d4;strokeColor=#82b366;" vertex="1" parent="1">
          <mxGeometry x="640" y="160" width="80" height="70" as="geometry" />
        </mxCell>
        <mxCell id="-OyFsQ3j8IVkyFUIj5fn-8" value="&lt;font style=&quot;font-size: 16px;&quot;&gt;b&lt;/font&gt;" style="rounded=0;whiteSpace=wrap;html=1;fillColor=#d5e8d4;strokeColor=#82b366;" vertex="1" parent="1">
          <mxGeometry x="720" y="160" width="80" height="70" as="geometry" />
        </mxCell>
        <mxCell id="-OyFsQ3j8IVkyFUIj5fn-9" value="&lt;font style=&quot;font-size: 16px;&quot;&gt;0&lt;/font&gt;" style="rounded=0;whiteSpace=wrap;html=1;fillColor=#dae8fc;strokeColor=#6c8ebf;" vertex="1" parent="1">
          <mxGeometry x="160" y="90" width="80" height="70" as="geometry" />
        </mxCell>
        <mxCell id="-OyFsQ3j8IVkyFUIj5fn-10" value="&lt;font style=&quot;font-size: 16px;&quot;&gt;1&lt;/font&gt;" style="rounded=0;whiteSpace=wrap;html=1;fillColor=#dae8fc;strokeColor=#6c8ebf;" vertex="1" parent="1">
          <mxGeometry x="240" y="90" width="80" height="70" as="geometry" />
        </mxCell>
        <mxCell id="-OyFsQ3j8IVkyFUIj5fn-11" value="&lt;font style=&quot;font-size: 16px;&quot;&gt;2&lt;/font&gt;" style="rounded=0;whiteSpace=wrap;html=1;fillColor=#dae8fc;strokeColor=#6c8ebf;" vertex="1" parent="1">
          <mxGeometry x="320" y="90" width="80" height="70" as="geometry" />
        </mxCell>
        <mxCell id="-OyFsQ3j8IVkyFUIj5fn-12" value="&lt;font style=&quot;font-size: 16px;&quot;&gt;3&lt;/font&gt;" style="rounded=0;whiteSpace=wrap;html=1;fillColor=#dae8fc;strokeColor=#6c8ebf;" vertex="1" parent="1">
          <mxGeometry x="400" y="90" width="80" height="70" as="geometry" />
        </mxCell>
        <mxCell id="-OyFsQ3j8IVkyFUIj5fn-13" value="&lt;font style=&quot;font-size: 16px;&quot;&gt;4&lt;/font&gt;" style="rounded=0;whiteSpace=wrap;html=1;fillColor=#dae8fc;strokeColor=#6c8ebf;" vertex="1" parent="1">
          <mxGeometry x="480" y="90" width="80" height="70" as="geometry" />
        </mxCell>
        <mxCell id="-OyFsQ3j8IVkyFUIj5fn-14" value="&lt;font style=&quot;font-size: 16px;&quot;&gt;5&lt;/font&gt;" style="rounded=0;whiteSpace=wrap;html=1;fillColor=#dae8fc;strokeColor=#6c8ebf;" vertex="1" parent="1">
          <mxGeometry x="560" y="90" width="80" height="70" as="geometry" />
        </mxCell>
        <mxCell id="-OyFsQ3j8IVkyFUIj5fn-15" value="&lt;font style=&quot;font-size: 16px;&quot;&gt;6&lt;/font&gt;" style="rounded=0;whiteSpace=wrap;html=1;fillColor=#dae8fc;strokeColor=#6c8ebf;" vertex="1" parent="1">
          <mxGeometry x="640" y="90" width="80" height="70" as="geometry" />
        </mxCell>
        <mxCell id="-OyFsQ3j8IVkyFUIj5fn-16" value="&lt;font style=&quot;font-size: 16px;&quot;&gt;7&lt;/font&gt;" style="rounded=0;whiteSpace=wrap;html=1;fillColor=#dae8fc;strokeColor=#6c8ebf;" vertex="1" parent="1">
          <mxGeometry x="720" y="90" width="80" height="70" as="geometry" />
        </mxCell>
        <mxCell id="-OyFsQ3j8IVkyFUIj5fn-17" value="Index" style="text;html=1;strokeColor=none;fillColor=none;align=center;verticalAlign=middle;whiteSpace=wrap;rounded=0;fontSize=16;" vertex="1" parent="1">
          <mxGeometry x="90" y="110" width="60" height="30" as="geometry" />
        </mxCell>
        <mxCell id="-OyFsQ3j8IVkyFUIj5fn-18" value="Content" style="text;html=1;strokeColor=none;fillColor=none;align=center;verticalAlign=middle;whiteSpace=wrap;rounded=0;fontSize=16;" vertex="1" parent="1">
          <mxGeometry x="90" y="180" width="60" height="30" as="geometry" />
        </mxCell>
        <mxCell id="-OyFsQ3j8IVkyFUIj5fn-19" value="" style="shape=crossbar;whiteSpace=wrap;html=1;rounded=1;fontSize=16;" vertex="1" parent="1">
          <mxGeometry x="170" y="250" width="220" height="20" as="geometry" />
        </mxCell>
        <mxCell id="-OyFsQ3j8IVkyFUIj5fn-20" value="" style="shape=crossbar;whiteSpace=wrap;html=1;rounded=1;fontSize=16;" vertex="1" parent="1">
          <mxGeometry x="250" y="280" width="220" height="20" as="geometry" />
        </mxCell>
        <mxCell id="-OyFsQ3j8IVkyFUIj5fn-21" value="" style="shape=crossbar;whiteSpace=wrap;html=1;rounded=1;fontSize=16;" vertex="1" parent="1">
          <mxGeometry x="323" y="310" width="220" height="20" as="geometry" />
        </mxCell>
        <mxCell id="-OyFsQ3j8IVkyFUIj5fn-22" value="" style="shape=crossbar;whiteSpace=wrap;html=1;rounded=1;fontSize=16;" vertex="1" parent="1">
          <mxGeometry x="410" y="350" width="220" height="20" as="geometry" />
        </mxCell>
        <mxCell id="-OyFsQ3j8IVkyFUIj5fn-23" value="" style="shape=crossbar;whiteSpace=wrap;html=1;rounded=1;fontSize=16;" vertex="1" parent="1">
          <mxGeometry x="580" y="380" width="120" height="20" as="geometry" />
        </mxCell>
        <mxCell id="-OyFsQ3j8IVkyFUIj5fn-24" value="" style="shape=crossbar;whiteSpace=wrap;html=1;rounded=1;fontSize=16;" vertex="1" parent="1">
          <mxGeometry x="730" y="410" width="60" height="20" as="geometry" />
        </mxCell>
        <mxCell id="-OyFsQ3j8IVkyFUIj5fn-25" value="Sliding window" style="text;html=1;strokeColor=none;fillColor=none;align=center;verticalAlign=middle;whiteSpace=wrap;rounded=0;fontSize=16;" vertex="1" parent="1">
          <mxGeometry x="30" y="250" width="120" height="30" as="geometry" />
        </mxCell>
      </root>
    </mxGraphModel>
  </diagram>
</mxfile>
